<svg xmlns="http://www.w3.org/2000/svg" xmlns:xlink="http://www.w3.org/1999/xlink" style="margin: auto; background: rgb(122, 206, 255); display: block; z-index: 1; position: relative; shape-rendering: auto;" width="1440" height="789" preserveAspectRatio="xMidYMid" viewBox="0 0 1440 789">
    <g transform=""><g transform="translate(569.288 158.673)">
        <animateTransform attributeName="transform" type="translate" keyTimes="0;1" values="-100 158.67255252478492;1440 158.67255252478492" dur="66.66666666666667s" repeatCount="indefinite" begin="-31.18986513143871s"></animateTransform>
        <path d="M84.717,33.597c0.791-2.503,1.186-5.138,1.186-7.773C85.903,11.594,74.308,0,60.079,0 c-9.881,0-18.445,5.534-22.793,13.702c-1.581-0.527-3.426-0.791-5.138-0.791c-9.486,0-17.128,7.642-17.128,17.128 c0,1.186,0.132,2.372,0.395,3.426C6.719,34.783,0,42.424,0,51.515C0,61.66,8.169,69.829,18.314,69.829h63.373 C91.831,69.829,100,61.66,100,51.515C99.868,42.556,93.281,35.046,84.717,33.597z" fill="#bddeff" transform="scale(0.55)"></path>
    </g><g transform="translate(1066.03 528.058)">
        <animateTransform attributeName="transform" type="translate" keyTimes="0;1" values="-100 528.0582688870986;1440 528.0582688870986" dur="66.66666666666667s" repeatCount="indefinite" begin="-52.693659948991986s"></animateTransform>
        <path d="M84.717,33.597c0.791-2.503,1.186-5.138,1.186-7.773C85.903,11.594,74.308,0,60.079,0 c-9.881,0-18.445,5.534-22.793,13.702c-1.581-0.527-3.426-0.791-5.138-0.791c-9.486,0-17.128,7.642-17.128,17.128 c0,1.186,0.132,2.372,0.395,3.426C6.719,34.783,0,42.424,0,51.515C0,61.66,8.169,69.829,18.314,69.829h63.373 C91.831,69.829,100,61.66,100,51.515C99.868,42.556,93.281,35.046,84.717,33.597z" fill="#bddeff" transform="scale(0.55)"></path>
    </g><g transform="translate(1204.49 541.922)">
        <animateTransform attributeName="transform" type="translate" keyTimes="0;1" values="-100 541.9218412860087;1440 541.9218412860087" dur="66.66666666666667s" repeatCount="indefinite" begin="-58.68779209752897s"></animateTransform>
        <path d="M84.717,33.597c0.791-2.503,1.186-5.138,1.186-7.773C85.903,11.594,74.308,0,60.079,0 c-9.881,0-18.445,5.534-22.793,13.702c-1.581-0.527-3.426-0.791-5.138-0.791c-9.486,0-17.128,7.642-17.128,17.128 c0,1.186,0.132,2.372,0.395,3.426C6.719,34.783,0,42.424,0,51.515C0,61.66,8.169,69.829,18.314,69.829h63.373 C91.831,69.829,100,61.66,100,51.515C99.868,42.556,93.281,35.046,84.717,33.597z" fill="#bddeff" transform="scale(0.55)"></path>
    </g><g transform="translate(1036.67 112.743)">
        <animateTransform attributeName="transform" type="translate" keyTimes="0;1" values="-100 112.74320845114379;1440 112.74320845114379" dur="66.66666666666667s" repeatCount="indefinite" begin="-51.422672916582954s"></animateTransform>
        <path d="M84.717,33.597c0.791-2.503,1.186-5.138,1.186-7.773C85.903,11.594,74.308,0,60.079,0 c-9.881,0-18.445,5.534-22.793,13.702c-1.581-0.527-3.426-0.791-5.138-0.791c-9.486,0-17.128,7.642-17.128,17.128 c0,1.186,0.132,2.372,0.395,3.426C6.719,34.783,0,42.424,0,51.515C0,61.66,8.169,69.829,18.314,69.829h63.373 C91.831,69.829,100,61.66,100,51.515C99.868,42.556,93.281,35.046,84.717,33.597z" fill="#bddeff" transform="scale(0.55)"></path>
    </g><g transform="translate(1048.94 103.075)">
        <animateTransform attributeName="transform" type="translate" keyTimes="0;1" values="-100 103.07451735417801;1440 103.07451735417801" dur="66.66666666666667s" repeatCount="indefinite" begin="-51.954191355886515s"></animateTransform>
        <path d="M84.717,33.597c0.791-2.503,1.186-5.138,1.186-7.773C85.903,11.594,74.308,0,60.079,0 c-9.881,0-18.445,5.534-22.793,13.702c-1.581-0.527-3.426-0.791-5.138-0.791c-9.486,0-17.128,7.642-17.128,17.128 c0,1.186,0.132,2.372,0.395,3.426C6.719,34.783,0,42.424,0,51.515C0,61.66,8.169,69.829,18.314,69.829h63.373 C91.831,69.829,100,61.66,100,51.515C99.868,42.556,93.281,35.046,84.717,33.597z" fill="#bddeff" transform="scale(0.55)"></path>
    </g><g transform="translate(987.026 573.406)">
        <animateTransform attributeName="transform" type="translate" keyTimes="0;1" values="-100 573.405698311409;1440 573.405698311409" dur="66.66666666666667s" repeatCount="indefinite" begin="-49.273753488262265s"></animateTransform>
        <path d="M84.717,33.597c0.791-2.503,1.186-5.138,1.186-7.773C85.903,11.594,74.308,0,60.079,0 c-9.881,0-18.445,5.534-22.793,13.702c-1.581-0.527-3.426-0.791-5.138-0.791c-9.486,0-17.128,7.642-17.128,17.128 c0,1.186,0.132,2.372,0.395,3.426C6.719,34.783,0,42.424,0,51.515C0,61.66,8.169,69.829,18.314,69.829h63.373 C91.831,69.829,100,61.66,100,51.515C99.868,42.556,93.281,35.046,84.717,33.597z" fill="#bddeff" transform="scale(0.55)"></path>
    </g><g transform="translate(453.874 353.78)">
        <animateTransform attributeName="transform" type="translate" keyTimes="0;1" values="-100 353.77982892164664;1440 353.77982892164664" dur="66.66666666666667s" repeatCount="indefinite" begin="-26.193596481179252s"></animateTransform>
        <path d="M84.717,33.597c0.791-2.503,1.186-5.138,1.186-7.773C85.903,11.594,74.308,0,60.079,0 c-9.881,0-18.445,5.534-22.793,13.702c-1.581-0.527-3.426-0.791-5.138-0.791c-9.486,0-17.128,7.642-17.128,17.128 c0,1.186,0.132,2.372,0.395,3.426C6.719,34.783,0,42.424,0,51.515C0,61.66,8.169,69.829,18.314,69.829h63.373 C91.831,69.829,100,61.66,100,51.515C99.868,42.556,93.281,35.046,84.717,33.597z" fill="#bddeff" transform="scale(0.55)"></path>
    </g><g transform="translate(1317.35 365.722)">
        <animateTransform attributeName="transform" type="translate" keyTimes="0;1" values="-100 365.7222620194495;1440 365.7222620194495" dur="66.66666666666667s" repeatCount="indefinite" begin="-63.57366122853689s"></animateTransform>
        <path d="M84.717,33.597c0.791-2.503,1.186-5.138,1.186-7.773C85.903,11.594,74.308,0,60.079,0 c-9.881,0-18.445,5.534-22.793,13.702c-1.581-0.527-3.426-0.791-5.138-0.791c-9.486,0-17.128,7.642-17.128,17.128 c0,1.186,0.132,2.372,0.395,3.426C6.719,34.783,0,42.424,0,51.515C0,61.66,8.169,69.829,18.314,69.829h63.373 C91.831,69.829,100,61.66,100,51.515C99.868,42.556,93.281,35.046,84.717,33.597z" fill="#bddeff" transform="scale(0.55)"></path>
    </g><g transform="translate(1439.09 114.863)">
        <animateTransform attributeName="transform" type="translate" keyTimes="0;1" values="-100 114.86329055570944;1440 114.86329055570944" dur="66.66666666666667s" repeatCount="indefinite" begin="-2.176785713241462s"></animateTransform>
        <path d="M84.717,33.597c0.791-2.503,1.186-5.138,1.186-7.773C85.903,11.594,74.308,0,60.079,0 c-9.881,0-18.445,5.534-22.793,13.702c-1.581-0.527-3.426-0.791-5.138-0.791c-9.486,0-17.128,7.642-17.128,17.128 c0,1.186,0.132,2.372,0.395,3.426C6.719,34.783,0,42.424,0,51.515C0,61.66,8.169,69.829,18.314,69.829h63.373 C91.831,69.829,100,61.66,100,51.515C99.868,42.556,93.281,35.046,84.717,33.597z" fill="#bddeff" transform="scale(0.55)"></path>
    </g><g transform="translate(1207.21 75.6226)">
        <animateTransform attributeName="transform" type="translate" keyTimes="0;1" values="-100 75.62260027928119;1440 75.62260027928119" dur="66.66666666666667s" repeatCount="indefinite" begin="-58.805551164079624s"></animateTransform>
        <path d="M84.717,33.597c0.791-2.503,1.186-5.138,1.186-7.773C85.903,11.594,74.308,0,60.079,0 c-9.881,0-18.445,5.534-22.793,13.702c-1.581-0.527-3.426-0.791-5.138-0.791c-9.486,0-17.128,7.642-17.128,17.128 c0,1.186,0.132,2.372,0.395,3.426C6.719,34.783,0,42.424,0,51.515C0,61.66,8.169,69.829,18.314,69.829h63.373 C91.831,69.829,100,61.66,100,51.515C99.868,42.556,93.281,35.046,84.717,33.597z" fill="#bddeff" transform="scale(0.55)"></path>
    </g><g transform="translate(11.611 518.235)">
        <animateTransform attributeName="transform" type="translate" keyTimes="0;1" values="-100 518.2352175266666;1440 518.2352175266666" dur="66.66666666666667s" repeatCount="indefinite" begin="-7.048010399376918s"></animateTransform>
        <path d="M84.717,33.597c0.791-2.503,1.186-5.138,1.186-7.773C85.903,11.594,74.308,0,60.079,0 c-9.881,0-18.445,5.534-22.793,13.702c-1.581-0.527-3.426-0.791-5.138-0.791c-9.486,0-17.128,7.642-17.128,17.128 c0,1.186,0.132,2.372,0.395,3.426C6.719,34.783,0,42.424,0,51.515C0,61.66,8.169,69.829,18.314,69.829h63.373 C91.831,69.829,100,61.66,100,51.515C99.868,42.556,93.281,35.046,84.717,33.597z" fill="#bddeff" transform="scale(0.55)"></path>
    </g><g transform="translate(329.892 247.41)">
        <animateTransform attributeName="transform" type="translate" keyTimes="0;1" values="-100 247.40987207086067;1440 247.40987207086067" dur="33.333333333333336s" repeatCount="indefinite" begin="-11.521383759940726s"></animateTransform>
        <path d="M84.717,33.597c0.791-2.503,1.186-5.138,1.186-7.773C85.903,11.594,74.308,0,60.079,0 c-9.881,0-18.445,5.534-22.793,13.702c-1.581-0.527-3.426-0.791-5.138-0.791c-9.486,0-17.128,7.642-17.128,17.128 c0,1.186,0.132,2.372,0.395,3.426C6.719,34.783,0,42.424,0,51.515C0,61.66,8.169,69.829,18.314,69.829h63.373 C91.831,69.829,100,61.66,100,51.515C99.868,42.556,93.281,35.046,84.717,33.597z" fill="#ffffff" transform="scale(0.7)"></path>
    </g><g transform="translate(361.715 299.477)">
        <animateTransform attributeName="transform" type="translate" keyTimes="0;1" values="-100 299.4771270485719;1440 299.4771270485719" dur="33.333333333333336s" repeatCount="indefinite" begin="-45.543535981120165s"></animateTransform>
        <path d="M84.717,33.597c0.791-2.503,1.186-5.138,1.186-7.773C85.903,11.594,74.308,0,60.079,0 c-9.881,0-18.445,5.534-22.793,13.702c-1.581-0.527-3.426-0.791-5.138-0.791c-9.486,0-17.128,7.642-17.128,17.128 c0,1.186,0.132,2.372,0.395,3.426C6.719,34.783,0,42.424,0,51.515C0,61.66,8.169,69.829,18.314,69.829h63.373 C91.831,69.829,100,61.66,100,51.515C99.868,42.556,93.281,35.046,84.717,33.597z" fill="#ffffff" transform="scale(0.7)"></path>
    </g><g transform="translate(664.512 323.495)">
        <animateTransform attributeName="transform" type="translate" keyTimes="0;1" values="-100 323.4954371948212;1440 323.4954371948212" dur="33.333333333333336s" repeatCount="indefinite" begin="-52.097572078657144s"></animateTransform>
        <path d="M84.717,33.597c0.791-2.503,1.186-5.138,1.186-7.773C85.903,11.594,74.308,0,60.079,0 c-9.881,0-18.445,5.534-22.793,13.702c-1.581-0.527-3.426-0.791-5.138-0.791c-9.486,0-17.128,7.642-17.128,17.128 c0,1.186,0.132,2.372,0.395,3.426C6.719,34.783,0,42.424,0,51.515C0,61.66,8.169,69.829,18.314,69.829h63.373 C91.831,69.829,100,61.66,100,51.515C99.868,42.556,93.281,35.046,84.717,33.597z" fill="#ffffff" transform="scale(0.7)"></path>
    </g><g transform="translate(-59.5889 11.3014)">
        <animateTransform attributeName="transform" type="translate" keyTimes="0;1" values="-100 11.301380518815996;1440 11.301380518815996" dur="33.333333333333336s" repeatCount="indefinite" begin="-3.0910675312067593s"></animateTransform>
        <path d="M84.717,33.597c0.791-2.503,1.186-5.138,1.186-7.773C85.903,11.594,74.308,0,60.079,0 c-9.881,0-18.445,5.534-22.793,13.702c-1.581-0.527-3.426-0.791-5.138-0.791c-9.486,0-17.128,7.642-17.128,17.128 c0,1.186,0.132,2.372,0.395,3.426C6.719,34.783,0,42.424,0,51.515C0,61.66,8.169,69.829,18.314,69.829h63.373 C91.831,69.829,100,61.66,100,51.515C99.868,42.556,93.281,35.046,84.717,33.597z" fill="#ffffff" transform="scale(0.7)"></path>
    </g><g transform="translate(723.755 15.9145)">
        <animateTransform attributeName="transform" type="translate" keyTimes="0;1" values="-100 15.914460955938674;1440 15.914460955938674" dur="33.333333333333336s" repeatCount="indefinite" begin="-53.37989210001664s"></animateTransform>
        <path d="M84.717,33.597c0.791-2.503,1.186-5.138,1.186-7.773C85.903,11.594,74.308,0,60.079,0 c-9.881,0-18.445,5.534-22.793,13.702c-1.581-0.527-3.426-0.791-5.138-0.791c-9.486,0-17.128,7.642-17.128,17.128 c0,1.186,0.132,2.372,0.395,3.426C6.719,34.783,0,42.424,0,51.515C0,61.66,8.169,69.829,18.314,69.829h63.373 C91.831,69.829,100,61.66,100,51.515C99.868,42.556,93.281,35.046,84.717,33.597z" fill="#ffffff" transform="scale(0.7)"></path>
    </g><g transform="translate(483.573 130.669)">
        <animateTransform attributeName="transform" type="translate" keyTimes="0;1" values="-100 130.66875730865348;1440 130.66875730865348" dur="33.333333333333336s" repeatCount="indefinite" begin="-48.181148317083064s"></animateTransform>
        <path d="M84.717,33.597c0.791-2.503,1.186-5.138,1.186-7.773C85.903,11.594,74.308,0,60.079,0 c-9.881,0-18.445,5.534-22.793,13.702c-1.581-0.527-3.426-0.791-5.138-0.791c-9.486,0-17.128,7.642-17.128,17.128 c0,1.186,0.132,2.372,0.395,3.426C6.719,34.783,0,42.424,0,51.515C0,61.66,8.169,69.829,18.314,69.829h63.373 C91.831,69.829,100,61.66,100,51.515C99.868,42.556,93.281,35.046,84.717,33.597z" fill="#ffffff" transform="scale(0.7)"></path>
    </g><g transform="translate(1122.93 207.17)">
        <animateTransform attributeName="transform" type="translate" keyTimes="0;1" values="-100 207.17042172186876;1440 207.17042172186876" dur="33.333333333333336s" repeatCount="indefinite" begin="-28.686786811687067s"></animateTransform>
        <path d="M84.717,33.597c0.791-2.503,1.186-5.138,1.186-7.773C85.903,11.594,74.308,0,60.079,0 c-9.881,0-18.445,5.534-22.793,13.702c-1.581-0.527-3.426-0.791-5.138-0.791c-9.486,0-17.128,7.642-17.128,17.128 c0,1.186,0.132,2.372,0.395,3.426C6.719,34.783,0,42.424,0,51.515C0,61.66,8.169,69.829,18.314,69.829h63.373 C91.831,69.829,100,61.66,100,51.515C99.868,42.556,93.281,35.046,84.717,33.597z" fill="#ffffff" transform="scale(0.7)"></path>
    </g><g transform="translate(183.421 256.271)">
        <animateTransform attributeName="transform" type="translate" keyTimes="0;1" values="-100 256.2706509266549;1440 256.2706509266549" dur="33.333333333333336s" repeatCount="indefinite" begin="-41.684362350210115s"></animateTransform>
        <path d="M84.717,33.597c0.791-2.503,1.186-5.138,1.186-7.773C85.903,11.594,74.308,0,60.079,0 c-9.881,0-18.445,5.534-22.793,13.702c-1.581-0.527-3.426-0.791-5.138-0.791c-9.486,0-17.128,7.642-17.128,17.128 c0,1.186,0.132,2.372,0.395,3.426C6.719,34.783,0,42.424,0,51.515C0,61.66,8.169,69.829,18.314,69.829h63.373 C91.831,69.829,100,61.66,100,51.515C99.868,42.556,93.281,35.046,84.717,33.597z" fill="#ffffff" transform="scale(0.7)"></path>
    </g><g transform="translate(956.806 609.12)">
        <animateTransform attributeName="transform" type="translate" keyTimes="0;1" values="-100 609.1197219132777;1440 609.1197219132777" dur="33.333333333333336s" repeatCount="indefinite" begin="-25.09096404406643s"></animateTransform>
        <path d="M84.717,33.597c0.791-2.503,1.186-5.138,1.186-7.773C85.903,11.594,74.308,0,60.079,0 c-9.881,0-18.445,5.534-22.793,13.702c-1.581-0.527-3.426-0.791-5.138-0.791c-9.486,0-17.128,7.642-17.128,17.128 c0,1.186,0.132,2.372,0.395,3.426C6.719,34.783,0,42.424,0,51.515C0,61.66,8.169,69.829,18.314,69.829h63.373 C91.831,69.829,100,61.66,100,51.515C99.868,42.556,93.281,35.046,84.717,33.597z" fill="#ffffff" transform="scale(0.7)"></path>
    </g><g transform="translate(12.9399 98.8683)">
        <animateTransform attributeName="transform" type="translate" keyTimes="0;1" values="-100 98.86825353990812;1440 98.86825353990812" dur="33.333333333333336s" repeatCount="indefinite" begin="-37.994286201004876s"></animateTransform>
        <path d="M84.717,33.597c0.791-2.503,1.186-5.138,1.186-7.773C85.903,11.594,74.308,0,60.079,0 c-9.881,0-18.445,5.534-22.793,13.702c-1.581-0.527-3.426-0.791-5.138-0.791c-9.486,0-17.128,7.642-17.128,17.128 c0,1.186,0.132,2.372,0.395,3.426C6.719,34.783,0,42.424,0,51.515C0,61.66,8.169,69.829,18.314,69.829h63.373 C91.831,69.829,100,61.66,100,51.515C99.868,42.556,93.281,35.046,84.717,33.597z" fill="#ffffff" transform="scale(0.7)"></path>
    </g><g transform="translate(-63.2084 92.703)">
        <animateTransform attributeName="transform" type="translate" keyTimes="0;1" values="-100 92.70299713650779;1440 92.70299713650779" dur="33.333333333333336s" repeatCount="indefinite" begin="-36.34605611866233s"></animateTransform>
        <path d="M84.717,33.597c0.791-2.503,1.186-5.138,1.186-7.773C85.903,11.594,74.308,0,60.079,0 c-9.881,0-18.445,5.534-22.793,13.702c-1.581-0.527-3.426-0.791-5.138-0.791c-9.486,0-17.128,7.642-17.128,17.128 c0,1.186,0.132,2.372,0.395,3.426C6.719,34.783,0,42.424,0,51.515C0,61.66,8.169,69.829,18.314,69.829h63.373 C91.831,69.829,100,61.66,100,51.515C99.868,42.556,93.281,35.046,84.717,33.597z" fill="#ffffff" transform="scale(0.7)"></path>
    </g><g transform="translate(541.834 755.571)">
        <animateTransform attributeName="transform" type="translate" keyTimes="0;1" values="-100 755.571180199618;1440 755.571180199618" dur="22.222222222222225s" repeatCount="indefinite" begin="-55.92248026497915s"></animateTransform>
        <path d="M84.717,33.597c0.791-2.503,1.186-5.138,1.186-7.773C85.903,11.594,74.308,0,60.079,0 c-9.881,0-18.445,5.534-22.793,13.702c-1.581-0.527-3.426-0.791-5.138-0.791c-9.486,0-17.128,7.642-17.128,17.128 c0,1.186,0.132,2.372,0.395,3.426C6.719,34.783,0,42.424,0,51.515C0,61.66,8.169,69.829,18.314,69.829h63.373 C91.831,69.829,100,61.66,100,51.515C99.868,42.556,93.281,35.046,84.717,33.597z" fill="#f1f2f3" transform="scale(0.85)"></path>
    </g><g transform="translate(109.955 229.254)">
        <animateTransform attributeName="transform" type="translate" keyTimes="0;1" values="-100 229.25422458722798;1440 229.25422458722798" dur="22.222222222222225s" repeatCount="indefinite" begin="-49.69046210197905s"></animateTransform>
        <path d="M84.717,33.597c0.791-2.503,1.186-5.138,1.186-7.773C85.903,11.594,74.308,0,60.079,0 c-9.881,0-18.445,5.534-22.793,13.702c-1.581-0.527-3.426-0.791-5.138-0.791c-9.486,0-17.128,7.642-17.128,17.128 c0,1.186,0.132,2.372,0.395,3.426C6.719,34.783,0,42.424,0,51.515C0,61.66,8.169,69.829,18.314,69.829h63.373 C91.831,69.829,100,61.66,100,51.515C99.868,42.556,93.281,35.046,84.717,33.597z" fill="#f1f2f3" transform="scale(0.85)"></path>
    </g><g transform="translate(269.832 590.405)">
        <animateTransform attributeName="transform" type="translate" keyTimes="0;1" values="-100 590.4051781408695;1440 590.4051781408695" dur="22.222222222222225s" repeatCount="indefinite" begin="-51.997498317314275s"></animateTransform>
        <path d="M84.717,33.597c0.791-2.503,1.186-5.138,1.186-7.773C85.903,11.594,74.308,0,60.079,0 c-9.881,0-18.445,5.534-22.793,13.702c-1.581-0.527-3.426-0.791-5.138-0.791c-9.486,0-17.128,7.642-17.128,17.128 c0,1.186,0.132,2.372,0.395,3.426C6.719,34.783,0,42.424,0,51.515C0,61.66,8.169,69.829,18.314,69.829h63.373 C91.831,69.829,100,61.66,100,51.515C99.868,42.556,93.281,35.046,84.717,33.597z" fill="#f1f2f3" transform="scale(0.85)"></path>
    </g><g transform="translate(297.991 142.762)">
        <animateTransform attributeName="transform" type="translate" keyTimes="0;1" values="-100 142.76239286891922;1440 142.76239286891922" dur="22.222222222222225s" repeatCount="indefinite" begin="-30.181606288276978s"></animateTransform>
        <path d="M84.717,33.597c0.791-2.503,1.186-5.138,1.186-7.773C85.903,11.594,74.308,0,60.079,0 c-9.881,0-18.445,5.534-22.793,13.702c-1.581-0.527-3.426-0.791-5.138-0.791c-9.486,0-17.128,7.642-17.128,17.128 c0,1.186,0.132,2.372,0.395,3.426C6.719,34.783,0,42.424,0,51.515C0,61.66,8.169,69.829,18.314,69.829h63.373 C91.831,69.829,100,61.66,100,51.515C99.868,42.556,93.281,35.046,84.717,33.597z" fill="#f1f2f3" transform="scale(0.85)"></path>
    </g><g transform="translate(152.052 274.684)">
        <animateTransform attributeName="transform" type="translate" keyTimes="0;1" values="-100 274.68418854483855;1440 274.68418854483855" dur="22.222222222222225s" repeatCount="indefinite" begin="-28.07570003352907s"></animateTransform>
        <path d="M84.717,33.597c0.791-2.503,1.186-5.138,1.186-7.773C85.903,11.594,74.308,0,60.079,0 c-9.881,0-18.445,5.534-22.793,13.702c-1.581-0.527-3.426-0.791-5.138-0.791c-9.486,0-17.128,7.642-17.128,17.128 c0,1.186,0.132,2.372,0.395,3.426C6.719,34.783,0,42.424,0,51.515C0,61.66,8.169,69.829,18.314,69.829h63.373 C91.831,69.829,100,61.66,100,51.515C99.868,42.556,93.281,35.046,84.717,33.597z" fill="#f1f2f3" transform="scale(0.85)"></path>
    </g><g transform="translate(1033.44 406.742)">
        <animateTransform attributeName="transform" type="translate" keyTimes="0;1" values="-100 406.7421469143083;1440 406.7421469143083" dur="22.222222222222225s" repeatCount="indefinite" begin="-18.57190244007104s"></animateTransform>
        <path d="M84.717,33.597c0.791-2.503,1.186-5.138,1.186-7.773C85.903,11.594,74.308,0,60.079,0 c-9.881,0-18.445,5.534-22.793,13.702c-1.581-0.527-3.426-0.791-5.138-0.791c-9.486,0-17.128,7.642-17.128,17.128 c0,1.186,0.132,2.372,0.395,3.426C6.719,34.783,0,42.424,0,51.515C0,61.66,8.169,69.829,18.314,69.829h63.373 C91.831,69.829,100,61.66,100,51.515C99.868,42.556,93.281,35.046,84.717,33.597z" fill="#f1f2f3" transform="scale(0.85)"></path>
    </g><g transform="translate(1286.21 453.312)">
        <animateTransform attributeName="transform" type="translate" keyTimes="0;1" values="-100 453.31161267601675;1440 453.31161267601675" dur="22.222222222222225s" repeatCount="indefinite" begin="-22.219363047499847s"></animateTransform>
        <path d="M84.717,33.597c0.791-2.503,1.186-5.138,1.186-7.773C85.903,11.594,74.308,0,60.079,0 c-9.881,0-18.445,5.534-22.793,13.702c-1.581-0.527-3.426-0.791-5.138-0.791c-9.486,0-17.128,7.642-17.128,17.128 c0,1.186,0.132,2.372,0.395,3.426C6.719,34.783,0,42.424,0,51.515C0,61.66,8.169,69.829,18.314,69.829h63.373 C91.831,69.829,100,61.66,100,51.515C99.868,42.556,93.281,35.046,84.717,33.597z" fill="#f1f2f3" transform="scale(0.85)"></path>
    </g><g transform="translate(1422.63 774.48)">
        <animateTransform attributeName="transform" type="translate" keyTimes="0;1" values="-100 774.4802081147935;1440 774.4802081147935" dur="22.222222222222225s" repeatCount="indefinite" begin="-46.410090027170625s"></animateTransform>
        <path d="M84.717,33.597c0.791-2.503,1.186-5.138,1.186-7.773C85.903,11.594,74.308,0,60.079,0 c-9.881,0-18.445,5.534-22.793,13.702c-1.581-0.527-3.426-0.791-5.138-0.791c-9.486,0-17.128,7.642-17.128,17.128 c0,1.186,0.132,2.372,0.395,3.426C6.719,34.783,0,42.424,0,51.515C0,61.66,8.169,69.829,18.314,69.829h63.373 C91.831,69.829,100,61.66,100,51.515C99.868,42.556,93.281,35.046,84.717,33.597z" fill="#f1f2f3" transform="scale(0.85)"></path>
    </g><g transform="translate(-9.07735 339.151)">
        <animateTransform attributeName="transform" type="translate" keyTimes="0;1" values="-100 339.1507793188449;1440 339.1507793188449" dur="22.222222222222225s" repeatCount="indefinite" begin="-47.97282619965051s"></animateTransform>
        <path d="M84.717,33.597c0.791-2.503,1.186-5.138,1.186-7.773C85.903,11.594,74.308,0,60.079,0 c-9.881,0-18.445,5.534-22.793,13.702c-1.581-0.527-3.426-0.791-5.138-0.791c-9.486,0-17.128,7.642-17.128,17.128 c0,1.186,0.132,2.372,0.395,3.426C6.719,34.783,0,42.424,0,51.515C0,61.66,8.169,69.829,18.314,69.829h63.373 C91.831,69.829,100,61.66,100,51.515C99.868,42.556,93.281,35.046,84.717,33.597z" fill="#f1f2f3" transform="scale(0.85)"></path>
    </g><g transform="translate(68.2326 377.329)">
        <animateTransform attributeName="transform" type="translate" keyTimes="0;1" values="-100 377.328824836167;1440 377.328824836167" dur="22.222222222222225s" repeatCount="indefinite" begin="-4.643966983443182s"></animateTransform>
        <path d="M84.717,33.597c0.791-2.503,1.186-5.138,1.186-7.773C85.903,11.594,74.308,0,60.079,0 c-9.881,0-18.445,5.534-22.793,13.702c-1.581-0.527-3.426-0.791-5.138-0.791c-9.486,0-17.128,7.642-17.128,17.128 c0,1.186,0.132,2.372,0.395,3.426C6.719,34.783,0,42.424,0,51.515C0,61.66,8.169,69.829,18.314,69.829h63.373 C91.831,69.829,100,61.66,100,51.515C99.868,42.556,93.281,35.046,84.717,33.597z" fill="#f1f2f3" transform="scale(0.85)"></path>
    </g><g transform="translate(1012.47 37.2927)">
        <animateTransform attributeName="transform" type="translate" keyTimes="0;1" values="-100 37.292745117999665;1440 37.292745117999665" dur="22.222222222222225s" repeatCount="indefinite" begin="-40.49152710113469s"></animateTransform>
        <path d="M84.717,33.597c0.791-2.503,1.186-5.138,1.186-7.773C85.903,11.594,74.308,0,60.079,0 c-9.881,0-18.445,5.534-22.793,13.702c-1.581-0.527-3.426-0.791-5.138-0.791c-9.486,0-17.128,7.642-17.128,17.128 c0,1.186,0.132,2.372,0.395,3.426C6.719,34.783,0,42.424,0,51.515C0,61.66,8.169,69.829,18.314,69.829h63.373 C91.831,69.829,100,61.66,100,51.515C99.868,42.556,93.281,35.046,84.717,33.597z" fill="#f1f2f3" transform="scale(0.85)"></path>
    </g><g transform="translate(314.798 421.515)">
        <animateTransform attributeName="transform" type="translate" keyTimes="0;1" values="-100 421.51535548454035;1440 421.51535548454035" dur="16.666666666666668s" repeatCount="indefinite" begin="-40.03884985820269s"></animateTransform>
        <path d="M84.717,33.597c0.791-2.503,1.186-5.138,1.186-7.773C85.903,11.594,74.308,0,60.079,0 c-9.881,0-18.445,5.534-22.793,13.702c-1.581-0.527-3.426-0.791-5.138-0.791c-9.486,0-17.128,7.642-17.128,17.128 c0,1.186,0.132,2.372,0.395,3.426C6.719,34.783,0,42.424,0,51.515C0,61.66,8.169,69.829,18.314,69.829h63.373 C91.831,69.829,100,61.66,100,51.515C99.868,42.556,93.281,35.046,84.717,33.597z" fill="#bddeff" transform="scale(1)"></path>
    </g><g transform="translate(-40.467 0.514928)">
        <animateTransform attributeName="transform" type="translate" keyTimes="0;1" values="-100 0.5149274919041997;1440 0.5149274919041997" dur="16.666666666666668s" repeatCount="indefinite" begin="-36.19399189506907s"></animateTransform>
        <path d="M84.717,33.597c0.791-2.503,1.186-5.138,1.186-7.773C85.903,11.594,74.308,0,60.079,0 c-9.881,0-18.445,5.534-22.793,13.702c-1.581-0.527-3.426-0.791-5.138-0.791c-9.486,0-17.128,7.642-17.128,17.128 c0,1.186,0.132,2.372,0.395,3.426C6.719,34.783,0,42.424,0,51.515C0,61.66,8.169,69.829,18.314,69.829h63.373 C91.831,69.829,100,61.66,100,51.515C99.868,42.556,93.281,35.046,84.717,33.597z" fill="#bddeff" transform="scale(1)"></path>
    </g><g transform="translate(-78.501 654.217)">
        <animateTransform attributeName="transform" type="translate" keyTimes="0;1" values="-100 654.2174221999699;1440 654.2174221999699" dur="16.666666666666668s" repeatCount="indefinite" begin="-35.7823681903352s"></animateTransform>
        <path d="M84.717,33.597c0.791-2.503,1.186-5.138,1.186-7.773C85.903,11.594,74.308,0,60.079,0 c-9.881,0-18.445,5.534-22.793,13.702c-1.581-0.527-3.426-0.791-5.138-0.791c-9.486,0-17.128,7.642-17.128,17.128 c0,1.186,0.132,2.372,0.395,3.426C6.719,34.783,0,42.424,0,51.515C0,61.66,8.169,69.829,18.314,69.829h63.373 C91.831,69.829,100,61.66,100,51.515C99.868,42.556,93.281,35.046,84.717,33.597z" fill="#bddeff" transform="scale(1)"></path>
    </g><g transform="translate(850.445 574.433)">
        <animateTransform attributeName="transform" type="translate" keyTimes="0;1" values="-100 574.4334180669454;1440 574.4334180669454" dur="16.666666666666668s" repeatCount="indefinite" begin="-12.50256486645s"></animateTransform>
        <path d="M84.717,33.597c0.791-2.503,1.186-5.138,1.186-7.773C85.903,11.594,74.308,0,60.079,0 c-9.881,0-18.445,5.534-22.793,13.702c-1.581-0.527-3.426-0.791-5.138-0.791c-9.486,0-17.128,7.642-17.128,17.128 c0,1.186,0.132,2.372,0.395,3.426C6.719,34.783,0,42.424,0,51.515C0,61.66,8.169,69.829,18.314,69.829h63.373 C91.831,69.829,100,61.66,100,51.515C99.868,42.556,93.281,35.046,84.717,33.597z" fill="#bddeff" transform="scale(1)"></path>
    </g><g transform="translate(898.685 446.895)">
        <animateTransform attributeName="transform" type="translate" keyTimes="0;1" values="-100 446.8954592703673;1440 446.8954592703673" dur="16.666666666666668s" repeatCount="indefinite" begin="-46.35797068703058s"></animateTransform>
        <path d="M84.717,33.597c0.791-2.503,1.186-5.138,1.186-7.773C85.903,11.594,74.308,0,60.079,0 c-9.881,0-18.445,5.534-22.793,13.702c-1.581-0.527-3.426-0.791-5.138-0.791c-9.486,0-17.128,7.642-17.128,17.128 c0,1.186,0.132,2.372,0.395,3.426C6.719,34.783,0,42.424,0,51.515C0,61.66,8.169,69.829,18.314,69.829h63.373 C91.831,69.829,100,61.66,100,51.515C99.868,42.556,93.281,35.046,84.717,33.597z" fill="#bddeff" transform="scale(1)"></path>
    </g><g transform="translate(15.1142 160.968)">
        <animateTransform attributeName="transform" type="translate" keyTimes="0;1" values="-100 160.96764597073002;1440 160.96764597073002" dur="16.666666666666668s" repeatCount="indefinite" begin="-53.46218627338959s"></animateTransform>
        <path d="M84.717,33.597c0.791-2.503,1.186-5.138,1.186-7.773C85.903,11.594,74.308,0,60.079,0 c-9.881,0-18.445,5.534-22.793,13.702c-1.581-0.527-3.426-0.791-5.138-0.791c-9.486,0-17.128,7.642-17.128,17.128 c0,1.186,0.132,2.372,0.395,3.426C6.719,34.783,0,42.424,0,51.515C0,61.66,8.169,69.829,18.314,69.829h63.373 C91.831,69.829,100,61.66,100,51.515C99.868,42.556,93.281,35.046,84.717,33.597z" fill="#bddeff" transform="scale(1)"></path>
    </g><g transform="translate(1373.83 724.87)">
        <animateTransform attributeName="transform" type="translate" keyTimes="0;1" values="-100 724.8695480967144;1440 724.8695480967144" dur="16.666666666666668s" repeatCount="indefinite" begin="-51.50021252851465s"></animateTransform>
        <path d="M84.717,33.597c0.791-2.503,1.186-5.138,1.186-7.773C85.903,11.594,74.308,0,60.079,0 c-9.881,0-18.445,5.534-22.793,13.702c-1.581-0.527-3.426-0.791-5.138-0.791c-9.486,0-17.128,7.642-17.128,17.128 c0,1.186,0.132,2.372,0.395,3.426C6.719,34.783,0,42.424,0,51.515C0,61.66,8.169,69.829,18.314,69.829h63.373 C91.831,69.829,100,61.66,100,51.515C99.868,42.556,93.281,35.046,84.717,33.597z" fill="#bddeff" transform="scale(1)"></path>
    </g><g transform="translate(1147.8 546.776)">
        <animateTransform attributeName="transform" type="translate" keyTimes="0;1" values="-100 546.7757847021825;1440 546.7757847021825" dur="16.666666666666668s" repeatCount="indefinite" begin="-65.72074252750537s"></animateTransform>
        <path d="M84.717,33.597c0.791-2.503,1.186-5.138,1.186-7.773C85.903,11.594,74.308,0,60.079,0 c-9.881,0-18.445,5.534-22.793,13.702c-1.581-0.527-3.426-0.791-5.138-0.791c-9.486,0-17.128,7.642-17.128,17.128 c0,1.186,0.132,2.372,0.395,3.426C6.719,34.783,0,42.424,0,51.515C0,61.66,8.169,69.829,18.314,69.829h63.373 C91.831,69.829,100,61.66,100,51.515C99.868,42.556,93.281,35.046,84.717,33.597z" fill="#bddeff" transform="scale(1)"></path>
    </g><g transform="translate(813.031 29.8391)">
        <animateTransform attributeName="transform" type="translate" keyTimes="0;1" values="-100 29.839150250706414;1440 29.839150250706414" dur="16.666666666666668s" repeatCount="indefinite" begin="-62.097643491193736s"></animateTransform>
        <path d="M84.717,33.597c0.791-2.503,1.186-5.138,1.186-7.773C85.903,11.594,74.308,0,60.079,0 c-9.881,0-18.445,5.534-22.793,13.702c-1.581-0.527-3.426-0.791-5.138-0.791c-9.486,0-17.128,7.642-17.128,17.128 c0,1.186,0.132,2.372,0.395,3.426C6.719,34.783,0,42.424,0,51.515C0,61.66,8.169,69.829,18.314,69.829h63.373 C91.831,69.829,100,61.66,100,51.515C99.868,42.556,93.281,35.046,84.717,33.597z" fill="#bddeff" transform="scale(1)"></path>
    </g><g transform="translate(956.257 691.904)">
        <animateTransform attributeName="transform" type="translate" keyTimes="0;1" values="-100 691.9039706148557;1440 691.9039706148557" dur="16.666666666666668s" repeatCount="indefinite" begin="-63.64771803507714s"></animateTransform>
        <path d="M84.717,33.597c0.791-2.503,1.186-5.138,1.186-7.773C85.903,11.594,74.308,0,60.079,0 c-9.881,0-18.445,5.534-22.793,13.702c-1.581-0.527-3.426-0.791-5.138-0.791c-9.486,0-17.128,7.642-17.128,17.128 c0,1.186,0.132,2.372,0.395,3.426C6.719,34.783,0,42.424,0,51.515C0,61.66,8.169,69.829,18.314,69.829h63.373 C91.831,69.829,100,61.66,100,51.515C99.868,42.556,93.281,35.046,84.717,33.597z" fill="#bddeff" transform="scale(1)"></path>
    </g><g transform="translate(883.946 769.508)">
        <animateTransform attributeName="transform" type="translate" keyTimes="0;1" values="-100 769.5077712711346;1440 769.5077712711346" dur="16.666666666666668s" repeatCount="indefinite" begin="-29.531796828115628s"></animateTransform>
        <path d="M84.717,33.597c0.791-2.503,1.186-5.138,1.186-7.773C85.903,11.594,74.308,0,60.079,0 c-9.881,0-18.445,5.534-22.793,13.702c-1.581-0.527-3.426-0.791-5.138-0.791c-9.486,0-17.128,7.642-17.128,17.128 c0,1.186,0.132,2.372,0.395,3.426C6.719,34.783,0,42.424,0,51.515C0,61.66,8.169,69.829,18.314,69.829h63.373 C91.831,69.829,100,61.66,100,51.515C99.868,42.556,93.281,35.046,84.717,33.597z" fill="#bddeff" transform="scale(1)"></path>
    </g><g transform="translate(131.357 561.088)">
        <animateTransform attributeName="transform" type="translate" keyTimes="0;1" values="-100 561.0880736936572;1440 561.0880736936572" dur="16.666666666666668s" repeatCount="indefinite" begin="-38.05355788158907s"></animateTransform>
        <path d="M84.717,33.597c0.791-2.503,1.186-5.138,1.186-7.773C85.903,11.594,74.308,0,60.079,0 c-9.881,0-18.445,5.534-22.793,13.702c-1.581-0.527-3.426-0.791-5.138-0.791c-9.486,0-17.128,7.642-17.128,17.128 c0,1.186,0.132,2.372,0.395,3.426C6.719,34.783,0,42.424,0,51.515C0,61.66,8.169,69.829,18.314,69.829h63.373 C91.831,69.829,100,61.66,100,51.515C99.868,42.556,93.281,35.046,84.717,33.597z" fill="#bddeff" transform="scale(1)"></path>
    </g></g>
</svg>
